<svg width="20" height="10" viewBox="0 0 20 10" fill="none" xmlns="http://www.w3.org/2000/svg">
<path d="M0.779333 7.68446e-05C0.677512 -0.00136315 0.576421 0.017448 0.481933 0.055417C0.387446 0.093386 0.301447 0.149756 0.228934 0.22125C0.156421 0.292744 0.0988414 0.377938 0.0595401 0.471879C0.0202387 0.56582 0 0.666635 0 0.768466C0 0.870297 0.0202387 0.971112 0.0595401 1.06505C0.0988414 1.15899 0.156421 1.24419 0.228934 1.31568C0.301447 1.38718 0.387446 1.44355 0.481933 1.48152C0.576421 1.51948 0.677512 1.5383 0.779333 1.53686H19.2207C19.3225 1.5383 19.4236 1.51948 19.5181 1.48152C19.6126 1.44355 19.6986 1.38718 19.7711 1.31568C19.8436 1.24419 19.9012 1.15899 19.9405 1.06505C19.9798 0.971112 20 0.870297 20 0.768466C20 0.666635 19.9798 0.56582 19.9405 0.471879C19.9012 0.377938 19.8436 0.292744 19.7711 0.22125C19.6986 0.149756 19.6126 0.093386 19.5181 0.055417C19.4236 0.017448 19.3225 -0.00136315 19.2207 7.68446e-05H0.779333ZM0.779333 7.68397C0.677512 7.68253 0.576421 7.70134 0.481933 7.73931C0.387446 7.77728 0.301447 7.83365 0.228934 7.90514C0.156421 7.97664 0.0988414 8.06183 0.0595401 8.15577C0.0202387 8.24971 0 8.35053 0 8.45236C0 8.55419 0.0202387 8.655 0.0595401 8.74894C0.0988414 8.84289 0.156421 8.92808 0.228934 8.99957C0.301447 9.07107 0.387446 9.12744 0.481933 9.16541C0.576421 9.20337 0.677512 9.22218 0.779333 9.22074H19.2207C19.3225 9.22218 19.4236 9.20337 19.5181 9.16541C19.6126 9.12744 19.6986 9.07107 19.7711 8.99957C19.8436 8.92808 19.9012 8.84289 19.9405 8.74894C19.9798 8.655 20 8.55419 20 8.45236C20 8.35053 19.9798 8.24971 19.9405 8.15577C19.9012 8.06183 19.8436 7.97664 19.7711 7.90514C19.6986 7.83365 19.6126 7.77728 19.5181 7.73931C19.4236 7.70134 19.3225 7.68253 19.2207 7.68397H0.779333Z" fill="#010101"/>
</svg>
