<svg width="91" height="93" viewBox="0 0 91 93" fill="none" xmlns="http://www.w3.org/2000/svg">
<path d="M11.2246 43H2.70711C2.25435 43 1.82014 42.8201 1.5 42.5C1.17986 42.1799 1 41.7456 1 41.2929V41.1274C1 40.4231 1.35201 39.7653 1.93807 39.3746L2.32547 39.1164C2.44151 39.039 2.56527 38.9739 2.69476 38.9221L3.32616 38.6695C4.18882 38.3245 4.51538 37.2731 4 36.5L3.26847 35.5246C2.76127 34.8484 2.39439 34.0775 2.18937 33.2575L2.14022 33.0609C2.04709 32.6884 2 32.3058 2 31.9219V31.4604C2 30.8342 2.18537 30.222 2.53274 29.7009C2.83894 29.2416 3.2597 28.8701 3.75344 28.6233L4.45246 28.2738C4.81254 28.0937 5.20959 28 5.61217 28C6.47921 28 7.28888 27.5667 7.76983 26.8453L7.84387 26.7342C7.9477 26.5784 8.06667 26.4333 8.19903 26.301L9.00221 25.4978C9.32094 25.1791 9.75323 25 10.204 25C10.7084 25 11.1867 25.224 11.5096 25.6115L12.9061 27.2873C13.2999 27.7599 13.6231 28.2872 13.8655 28.8527L14.6798 30.7529C14.8903 31.244 15.214 31.6783 15.6244 32.0204L16.8789 33.0657C17.5138 33.5949 18.4475 33.5525 19.0319 32.9681C19.3316 32.6684 19.7381 32.5 20.1619 32.5H22.5H24.8486C25.2733 32.5 25.6886 32.3743 26.042 32.1387C26.6405 31.7397 27 31.0679 27 30.3486V24.5213C27 23.5709 27.475 22.6833 28.2658 22.1561C28.4216 22.0523 28.5667 21.9333 28.699 21.801L30 20.5L30.8548 19.6452C31.2679 19.2321 31.5 18.6718 31.5 18.0876V17.2906C31.5 16.8184 31.8021 16.3993 32.25 16.25C32.6979 16.1007 33 15.6816 33 15.2094V14.5V13.1889C33 11.8109 33.6488 10.5134 34.7511 9.68667C34.9168 9.56238 35.0735 9.42648 35.22 9.28001L35.4908 9.0092C36.1512 8.34883 36.9786 7.88035 37.8846 7.65385C38.2933 7.55167 38.713 7.5 39.1343 7.5H42.2288C43.0427 7.5 43.8233 7.17665 44.3989 6.6011C44.7922 6.20777 45.2851 5.92874 45.8247 5.79383L46.681 5.57975C46.8929 5.52678 47.1104 5.5 47.3288 5.5H48.4648C49.3127 5.5 50 4.81267 50 3.96482C50 3.66173 50.0897 3.36543 50.2578 3.11325L50.5327 2.7009C50.8389 2.24159 51.2597 1.87015 51.7534 1.62328L52.0588 1.4706C52.6778 1.16112 53.3603 1 54.0523 1H56.788C57.8842 1 58.9355 1.43547 59.7106 2.2106L59.8142 2.31419C59.9378 2.43776 60.0488 2.57323 60.1458 2.71864C60.674 3.511 60.7372 4.52566 60.3113 5.37742L60.0414 5.91721C60.0139 5.97222 59.9801 6.02386 59.9407 6.07111L58.8845 7.3386C58.5708 7.71507 58.996 8.25199 59.4343 8.03283C59.4778 8.01109 59.5175 7.98247 59.5519 7.94809L61.1893 6.31066C61.3962 6.10381 61.6175 5.91191 61.8515 5.7364L62.7866 5.03508C63.2497 4.68776 63.8129 4.5 64.3918 4.5C65.1014 4.5 65.7819 4.78187 66.2836 5.28361L66.6895 5.68946C66.8951 5.89514 67.1326 6.06632 67.3928 6.1964C68.3667 6.68335 69.5376 6.53921 70.3643 5.83059L72.0517 4.38426C72.3494 4.12905 72.6774 3.91132 73.0281 3.73595L73.6157 3.44213C74.1888 3.15558 74.8411 3.06823 75.4694 3.19389L75.6605 3.2321C76.4961 3.39923 77.1908 3.9771 77.5073 4.76834C77.8157 5.53936 77.7248 6.4128 77.2642 7.10374L77 7.5L75 10L73.8686 11.5086C73.6293 11.8276 73.5 12.2155 73.5 12.6143C73.5 13.1741 73.7545 13.7036 74.1916 14.0533L74.75 14.5C75.5401 15.1321 76 16.089 76 17.1008V18.8743C76 20.2604 76.4103 21.6154 77.1791 22.7687L78 24L78.8199 25.6399C79.2708 26.5415 79.5843 27.5056 79.75 28.5C79.9157 29.4944 80.2292 30.4585 80.6801 31.3601L81 32L81.5758 33.4395C81.8532 34.1331 82.3161 34.7371 82.9138 35.1853C83.6189 35.7141 84.4764 36 85.3578 36H89.2324C89.6563 36 90 36.3437 90 36.7676C90 36.9191 89.9551 37.0673 89.8711 37.1934L89 38.5C88.3479 39.4781 88 40.6273 88 41.8028V44.2258C88 44.7215 87.8031 45.1969 87.4526 45.5474C86.8837 46.1163 86.0146 46.2573 85.2951 45.8975L84.2402 45.3701C83.7534 45.1267 83.2167 45 82.6725 45H79.5C77.8505 45 76.2182 45.335 74.7021 45.9848L73.5 46.5L71.5789 47.5978C70.5283 48.1981 69.5325 48.8896 68.603 49.6642C67.537 50.5525 66.5633 51.5459 65.6965 52.6294L65 53.5L63.1179 55.3821C62.7065 55.7935 62.3248 56.2336 61.9757 56.699L61.6578 57.123C61.2212 57.7051 60.8631 58.3422 60.5928 59.0179C60.2012 59.997 60 61.0418 60 62.0963V65.7784C60 66.2551 60.091 66.7274 60.268 67.17C60.7262 68.3156 60.5911 69.6133 59.9067 70.64L59.5505 71.1742C59.1915 71.7127 59 72.3453 59 72.9924V73.1231C59 73.997 59.3819 74.8273 60.0454 75.3961L60.8894 76.1195C61.7582 76.8642 61.8091 78.1909 61 79L59.3286 80.6714C59.1182 80.8818 59 81.1671 59 81.4647C59 82.3482 58.0261 82.8849 57.2792 82.4131L50.3792 78.0553C49.798 77.6882 49.1544 77.4309 48.4804 77.2961L47.7434 77.1487C47.2539 77.0508 46.7488 77.0628 46.2645 77.1839L45.9808 77.2548C45.3497 77.4126 44.8001 77.7999 44.4392 78.3412L44.3867 78.4199C44.1346 78.7981 44 79.2426 44 79.6972C44 80.969 42.969 82 41.6972 82H38.3431C36.8429 82 35.404 82.596 34.3431 83.6569L30.7347 87.2653C30.2643 87.7357 30 88.3737 30 89.039C30 90.589 28.6082 91.768 27.0793 91.5132L26.5068 91.4178C25.0602 91.1767 24 89.9251 24 88.4586V86.4828C24 85.5334 23.6228 84.6228 22.9515 83.9515C22.6528 83.6528 22.4094 83.3037 22.2324 82.9203L20.8443 79.9126C20.0162 78.1184 20.2391 76.0146 21.4247 74.4337L21.4638 74.3817C22.1364 73.4848 22.5 72.394 22.5 71.2729C22.5 69.5406 23.3658 67.9228 24.8072 66.9619L25.5 66.5L32.1339 62.0774C33.6795 61.047 34.9005 59.5988 35.6549 57.9014L36.0764 56.953C36.3557 56.3247 36.5 55.6447 36.5 54.9571V54C36.5 53.0557 36.0554 52.1666 35.3 51.6C34.7807 51.2105 34.1491 51 33.5 51H30.9632C30.3252 51 29.6914 51.1029 29.0862 51.3046C26.8984 52.0339 24.4862 51.4299 22.9002 49.7558L20.1281 46.8297C17.812 44.3848 14.5924 43 11.2246 43Z" fill="#0085FF" stroke="black" stroke-width="2"/>
</svg>
