<svg width="64" height="54" viewBox="0 0 64 54" fill="none" xmlns="http://www.w3.org/2000/svg">
<path d="M56.6008 21.5H55.1939C55.0697 21.5 54.9507 21.4507 54.8629 21.3629C54.4792 20.9792 53.8593 21.4467 54.1229 21.9212L54.9124 23.3424C54.9699 23.4458 55 23.562 55 23.6803V24.1279C55 24.9792 54.5534 25.768 53.8235 26.2059L53.75 26.25C52.9745 26.7153 52.5 27.5534 52.5 28.4577V31.7247C52.5 33.7501 53.5853 35.6201 55.3438 36.625C55.7793 36.8739 56.1797 37.1797 56.5345 37.5345L59 40C60.1386 41.1386 60.239 42.9513 59.2331 44.2086L59 44.5L56.9816 46.8548C56.483 47.4365 56.6638 48.3319 57.349 48.6745C57.748 48.874 58 49.2818 58 49.7278V50.1541C58 50.9579 57.4857 51.6714 56.7232 51.9256L55.5513 52.3162C55.1862 52.4379 54.8038 52.5 54.4189 52.5H54.2093C53.1028 52.5 52.0293 52.1234 51.1653 51.4322L50.8034 51.1427C50.2759 50.7208 49.8608 50.1752 49.5947 49.5544L49.0623 48.3119C48.7227 47.5196 48.8997 46.6003 49.5093 45.9907C50.3326 45.1674 50.3326 43.8326 49.5093 43.0093L48.5 42L47.0192 40.223C46.3734 39.4481 45.4167 39 44.408 39C43.5065 39 42.6397 38.6397 42.0022 38.0022C41.3619 37.3619 40.4913 37 39.5858 37H31.618C30.8828 37 30.1576 37.1712 29.5 37.5L29.3995 37.5503C28.808 37.846 28.1557 38 27.4943 38C26.527 38 25.5885 38.3292 24.8331 38.9335L24.75 39C23.9408 39.6473 22.9355 40 21.8992 40H21.3531C20.1448 40 18.9635 40.3577 17.9581 41.0279L16.9102 41.7265C16.6374 41.9084 16.3832 42.1168 16.1514 42.3486L14.6264 43.8736C13.7005 44.7995 13.6189 46.2736 14.4369 47.2961C14.8014 47.7518 15 48.3179 15 48.9015V50.4678C15 51.1287 14.7374 51.7626 14.2701 52.2299C13.5116 52.9884 12.3529 53.1764 11.3934 52.6967L9 51.5L6.14354 49.7147C5.38559 49.241 4.70408 48.6548 4.1224 47.9761C2.75282 46.3783 2 44.3432 2 42.2387V37V29.8008C2 29.2695 1.92596 28.7408 1.78 28.23C1.28863 26.5102 1.63037 24.6595 2.70355 23.2286L3.46057 22.2192C3.81913 21.7412 4.12474 21.2256 4.37203 20.6815L6.5 16L6.689 15.622C7.55912 13.8818 8.19334 12.0333 8.57491 10.1255L8.87631 8.61844C8.95857 8.20715 9 7.78875 9 7.36931V6.55234C9 3.48587 11.4859 1 14.5523 1C15.8131 1 17.0364 1.42909 18.0209 2.21669L19.4652 3.37218C20.7824 4.42592 22.419 5 24.1058 5C25.3487 5 26.5718 5.31187 27.6629 5.90705L29.973 7.16708C30.9886 7.72103 31.9475 8.37296 32.8363 9.11355L34.5 10.5L36.9554 12.6485C37.5576 13.1754 38.5 12.7478 38.5 11.9476C38.5 11.6647 38.6286 11.3971 38.8495 11.2204L39.3665 10.8068C40.158 10.1736 40.0754 8.94523 39.2062 8.42372C38.7681 8.16084 38.5 7.68738 38.5 7.17644V6.26748C38.5 5.45593 38.8224 4.67761 39.3962 4.10376L39.5562 3.94377C40.4519 3.04806 41.7519 2.68798 42.9808 2.99521L44.2387 3.30968C44.744 3.436 45.2303 3.62872 45.685 3.88279L61.0626 12.4762C61.6734 12.8175 62.1673 13.3347 62.4802 13.9605C63.0997 15.1994 62.927 16.6876 62.0402 17.7517L61.3051 18.6339C61.1021 18.8775 60.8775 19.1021 60.6339 19.3051L59.0749 20.6043C58.3804 21.183 57.5049 21.5 56.6008 21.5Z" fill="#8CD89D" stroke="black" stroke-width="2"/>
</svg>
