<svg width="96" height="110" viewBox="0 0 96 110" fill="none" xmlns="http://www.w3.org/2000/svg">
<path d="M82.141 106.887L80.2685 108.385C79.771 108.783 79.1529 109 78.5158 109C77.8595 109 77.2239 108.77 76.7196 108.35L75.1544 107.045C74.7192 106.683 74.3217 106.277 73.9679 105.835L73.1951 104.869C72.7354 104.294 72.1769 103.806 71.5459 103.428L71.059 103.135C70.3673 102.72 69.8084 102.117 69.4477 101.395C69.1533 100.807 69 100.157 69 99.4989V97.5V96.4639C69 95.1631 68.7903 93.8709 68.379 92.6369C68.1269 91.8808 67.8008 91.1515 67.4054 90.4595L66.5977 89.0459C66.201 88.3517 65.7135 87.7135 65.1482 87.1482L65.1063 87.1063C64.0528 86.0528 62.7483 85.2852 61.3158 84.8759L60.5897 84.6685C60.1989 84.5568 59.8279 84.3852 59.4897 84.1598C58.8444 83.7296 58.0861 83.5 57.3105 83.5H55.5434C54.5284 83.5 53.5274 83.2637 52.6195 82.8098C52.2077 82.6038 51.8187 82.355 51.4591 82.0673L50.9557 81.6645C49.991 80.8928 49.1512 79.9768 48.466 78.9489C47.8253 77.988 47.0494 77.1245 46.1622 76.3852L44.5 75L43.1726 73.6726C42.7325 73.2325 42.4203 72.681 42.2693 72.0772C42.0942 71.3769 42.1443 70.6393 42.4124 69.969L42.5568 69.6081C42.8467 68.8833 42.9321 68.0928 42.8038 67.3228L42.6326 66.2955C42.548 65.788 42.2571 65.3381 41.829 65.0526L41.5801 64.8867C41.2177 64.6451 41 64.2384 41 63.8028C41 63.0833 40.4167 62.5 39.6972 62.5H37H33.5H32.5607C31.8815 62.5 31.2302 62.2302 30.75 61.75C30.2698 61.2698 29.6185 61 28.9393 61H28.6514C27.9321 61 27.2603 60.6405 26.8613 60.042C26.6257 59.6886 26.5 59.2733 26.5 58.8486V58.4014C26.5 57.8136 26.326 57.239 26 56.75C25.674 56.261 25.5 55.6864 25.5 55.0986V52.5607C25.5 51.8815 25.2302 51.2302 24.75 50.75C24.2698 50.2698 23.6185 50 22.9393 50H22.6148C21.8912 50 21.1871 50.2347 20.6082 50.6689L19.7485 51.3136C19.5831 51.4377 19.4266 51.5734 19.2803 51.7197L18.9255 52.0745C18.3329 52.6671 17.5292 53 16.6911 53C15.6346 53 14.648 52.472 14.0619 51.5929L13.8143 51.2215C13.2886 50.433 12.4997 49.857 11.5884 49.5967L10.7849 49.3671C9.98079 49.1374 9.34188 48.5256 9.07743 47.7323L9.00205 47.5061C8.70223 46.6067 7.86049 46 6.91239 46H6.68566C6.24664 46 5.8256 45.8256 5.51516 45.5152C4.93267 44.9327 4.86713 44.0105 5.3614 43.3515L5.58355 43.0553C5.85387 42.6948 6 42.2565 6 41.8059V39.5607C6 38.8815 6.26978 38.2302 6.75 37.75C7.23022 37.2698 7.88153 37 8.56066 37H10.5H13C13.6491 37 14.2807 36.7895 14.8 36.4C15.5554 35.8334 16 34.9443 16 34V30.5V26.5V25.6514C16 25.2267 15.8743 24.8114 15.6387 24.458C15.2397 23.8595 14.5679 23.5 13.8486 23.5H13H10.3242C9.832 23.5 9.39501 23.815 9.23937 24.2819L9.07009 24.7897C8.83807 25.4858 7.90699 25.6105 7.5 25L4.5 21.5L2 19C1.39334 18.3933 1.20659 17.4835 1.52523 16.6869L1.77396 16.0651C1.92328 15.6918 2 15.2934 2 14.8914V14.0092C2 13.0663 2.47121 12.1859 3.2557 11.6629C3.41813 11.5546 3.59136 11.4635 3.77261 11.391L6 10.5C8.3186 9.83754 10.5583 8.89527 12.652 7.69889L13 7.5L16 6L19.5 4L21.5 3L24 2L25.1073 1.55709C26.0273 1.18908 27.0091 1 28 1H29.0947C29.6927 1 30.2853 1.11411 30.8406 1.33622C31.9095 1.76381 32.7844 2.56882 33.2993 3.59859L33.5 4L34.5 6L35.2362 7.84062C35.4113 8.2783 35.6433 8.69102 35.9261 9.06814L36.5553 9.90709C36.844 10.292 37 10.7601 37 11.2411C37 12.0221 36.5902 12.7459 35.9205 13.1477L35.1023 13.6386C34.704 13.8776 34.3514 14.1857 34.0612 14.5485L32.5 16.5L30 19L28 21L27.0495 21.9505C26.746 22.254 26.746 22.746 27.0495 23.0495C27.3115 23.3115 27.7219 23.3521 28.0301 23.1466L28.5954 22.7697C28.8592 22.5938 29.1692 22.5 29.4862 22.5H30.4047C31.125 22.5 31.8354 22.6677 32.4796 22.9898L32.9472 23.2236C33.315 23.4075 33.6655 23.6241 33.9944 23.8708L34.8194 24.4895C35.2713 24.8285 35.6786 25.2232 36.0315 25.6643L37.2204 27.1504C37.4014 27.3767 37.5 27.6579 37.5 27.9477V28.3571C37.5 29.24 38.508 29.744 39.2143 29.2143L39.2416 29.1938C39.4093 29.068 39.6134 29 39.8231 29C40.7295 29 41.1399 27.8666 40.4435 27.2863L39.935 26.8625C39.6594 26.6328 39.5 26.2926 39.5 25.9338V25V23.5C39.5 22.8509 39.7105 22.2193 40.1 21.7L40.46 21.22C40.7999 20.7668 41.3334 20.5 41.9 20.5C42.2895 20.5 42.6684 20.3737 42.98 20.14L44.0742 19.3194C44.3575 19.1069 44.6593 18.9203 44.9761 18.762L45.3245 18.5878C46.0975 18.2012 46.95 18 47.8143 18H48.8486C49.2733 18 49.6886 18.1257 50.042 18.3613C50.6405 18.7603 51 19.4321 51 20.1514V21.5V23.1721C51 24.3061 50.405 25.357 49.4326 25.9404C48.8276 26.3035 48.3581 26.8547 48.0961 27.5098L47.5 29L47.0879 30.0303C46.7105 30.9738 46.7105 32.0262 47.0879 32.9697L47.1664 33.166C47.3846 33.7115 47.7486 34.1865 48.2186 34.539L48.8437 35.0078C49.2569 35.3176 49.5 35.8039 49.5 36.3204C49.5 36.7555 49.6729 37.1729 49.9806 37.4806L52 39.5L53.3559 40.8559C53.7825 41.2825 54.2751 41.6376 54.8148 41.9074C55.5942 42.2971 56.4537 42.5 57.3251 42.5H57.3768C58.1188 42.5 58.8539 42.6416 59.5429 42.9171L59.9505 43.0802C60.6438 43.3575 61.3837 43.5 62.1304 43.5H67.5C67.7761 43.5 68 43.7239 68 44C68 44.2761 68.2239 44.5 68.5 44.5H69.5662C69.8501 44.5 70.1286 44.5771 70.372 44.7232L71.9166 45.65C72.3049 45.8829 72.6728 46.1481 73.0165 46.4427L75.1822 48.299C75.7239 48.7633 76.1871 49.3119 76.5541 49.9236L76.7612 50.2687C77.2446 51.0744 77.5 51.9963 77.5 52.9359C77.5 53.638 77.3574 54.3327 77.0808 54.978L76.75 55.75C76.2552 56.9046 76 58.1477 76 59.4039V61.25C76 62.0614 75.7368 62.8509 75.25 63.5C74.7632 64.1491 74.5 64.9386 74.5 65.75V68.0986C74.5 68.6864 74.326 69.261 74 69.75C73.674 70.239 73.5 70.8136 73.5 71.4014V71.9047C73.5 72.625 73.6677 73.3354 73.9898 73.9796L74.0365 74.073C74.3413 74.6826 74.5 75.3549 74.5 76.0365V76.25C74.5 77.0614 74.7632 77.8509 75.25 78.5C75.7368 79.1491 76 79.9386 76 80.75V82C76 83.6228 76.5263 85.2018 77.5 86.5L78.8018 88.3224C79.5752 89.4053 80.709 90.1773 82 90.5C84.8843 91.141 87.402 92.8877 89.0123 95.365L92.2956 100.416C92.7553 101.124 93 101.949 93 102.792C93 103.583 93.2148 104.358 93.6213 105.035L94.4647 106.441C94.4881 106.48 94.5163 106.516 94.5485 106.549C94.8996 106.9 94.651 107.5 94.1544 107.5H88.8789C88.3073 107.5 87.75 107.321 87.2848 106.989L86.9583 106.756C85.504 105.717 83.5366 105.771 82.141 106.887Z" fill="#FFAAF6" stroke="black" stroke-width="2"/>
</svg>
