<svg width="97" height="92" viewBox="0 0 97 92" fill="none" xmlns="http://www.w3.org/2000/svg">
<path d="M9.42724 59.3624L3.91054 55.5247C2.19849 54.3337 1.51262 52.133 2.24492 50.1802L2.33014 49.953C2.44267 49.6529 2.602 49.3725 2.8022 49.1222C3.76876 47.9141 3.67229 46.1723 2.57822 45.0782L2.10731 44.6073C1.39831 43.8983 1 42.9367 1 41.934V41.0607C1 40.3815 1.26978 39.7302 1.75 39.25C2.23022 38.7698 2.5 38.1185 2.5 37.4393V36V31.217C2.5 29.4454 3.0244 27.7134 4.00711 26.2393C4.3349 25.7476 4.71046 25.2895 5.12831 24.8717L6.5 23.5L8.22524 21.7748C9.07301 20.927 10.0024 20.165 11 19.5L11.3852 19.2432C12.1266 18.7489 12.8173 18.1827 13.4474 17.5526L14.0338 16.9662C14.6738 16.3262 15.4127 15.7937 16.2221 15.3889C17.3913 14.8043 18.6805 14.5 19.9877 14.5H20.5H23.5H24.75C25.5614 14.5 26.3509 14.7632 27 15.25L27.5 15.625C27.8246 15.8684 28.2193 16 28.625 16C29.6605 16 30.5 15.1605 30.5 14.125V8.88743C30.5 7.69926 31.0594 6.58044 32.0099 5.86754L32.1285 5.7786C32.3746 5.59407 32.6487 5.45042 32.9405 5.35317L34.0132 4.99561C34.8481 4.71731 35.7552 5.13803 36.0821 5.95516C36.3345 6.58621 36.9457 7 37.6253 7H40.9366C41.6409 7 42.3406 7.11355 43.0088 7.33628L45.451 8.15035C46.1472 8.38241 46.8094 8.70626 47.42 9.11333L48.5363 9.85755C49.1647 10.2765 49.903 10.5 50.6582 10.5C51.5268 10.5 52.3695 10.2044 53.0478 9.66177L53.3136 9.44914C54.0635 8.84923 54.5 7.94097 54.5 6.98064C54.5 6.04245 54.9167 5.15273 55.6375 4.55212L57.1363 3.30308C57.3779 3.10171 57.5953 2.8729 57.7841 2.62126C58.5495 1.60065 59.7508 1 61.0266 1H61.5C63.4701 1 65.4102 1.48189 67.1514 2.40366L71.7835 4.85598C72.5868 5.28124 73.2993 5.85918 73.8812 6.5574L74.725 7.57003C75.2258 8.17092 75.5 8.92836 75.5 9.71055V10.4533C75.5 11.1072 75.8268 11.7179 76.3709 12.0806C76.7757 12.3505 77.0654 12.7615 77.1834 13.2335L77.3792 14.017C77.4594 14.3378 77.5 14.6672 77.5 14.9979V18.0021C77.5 18.3328 77.4594 18.6622 77.3792 18.983L77.1834 19.7665C77.0654 20.2385 76.7757 20.6495 76.3709 20.9194C75.8268 21.2821 75.5 21.8928 75.5 22.5467V22.8878C75.5 23.2904 75.4063 23.6875 75.2262 24.0475L74.987 24.5259C74.6667 25.1665 74.5 25.8729 74.5 26.5891V27.4393C74.5 28.1185 74.2302 28.7698 73.75 29.25C73.2698 29.7302 72.6185 30 71.9393 30H69.7514C69.5875 30 69.4272 29.9515 69.2908 29.8606C68.7391 29.4927 68 29.8882 68 30.5514V31.7611C68 32.2263 67.781 32.6642 67.4089 32.9433L66.8 33.4C66.2807 33.7895 65.6491 34 65 34H63.1008C62.0645 34 61.0592 34.3527 60.25 35L59.2972 35.7622C59.1048 35.9161 58.8658 36 58.6194 36H57.8107C57.1425 36 56.8079 36.8079 57.2803 37.2803C57.421 37.421 57.5 37.6117 57.5 37.8107V38.8852C57.5 39.6088 57.7347 40.3129 58.1689 40.8918L58.2994 41.0658C58.7569 41.6758 59.3794 42.1423 60.0934 42.41L63 43.5L65.1769 44.5885C65.7182 44.8591 66.3151 45 66.9202 45C67.6268 45 68.32 44.808 68.9259 44.4445L69.25 44.25C70.0679 43.7592 71.0039 43.5 71.9577 43.5H77.5H82H84.0423C84.669 43.5 85.2839 43.6703 85.8213 43.9928L86.6184 44.471C87.1653 44.7992 87.5 45.3903 87.5 46.0282C87.5 46.6353 87.1966 47.2023 86.6914 47.5391L86.3373 47.7751C86.1138 47.9242 85.9146 48.1068 85.7468 48.3166L84 50.5L82.1544 53.2684C82.0519 53.4221 81.9704 53.5888 81.912 53.7641L81.6376 54.5873C81.3239 55.5283 82.0243 56.5 83.0162 56.5C83.6104 56.5 84.1447 56.8618 84.3654 57.4135L85 59C85.6576 60.3153 86.6124 61.4593 87.7889 62.3416L88 62.5L89.5096 63.4058C90.124 63.7744 90.5 64.4384 90.5 65.155C90.5 65.6961 90.2851 66.2149 89.9025 66.5975L89.0675 67.4325C88.7041 67.7959 88.5 68.2887 88.5 68.8025C88.5 69.5364 88.9146 70.2073 89.571 70.5355L89.9652 70.7326C90.3157 70.9078 90.6143 71.1715 90.8316 71.4975L90.8746 71.5619C91.2653 72.148 91.9231 72.5 92.6274 72.5C93.1861 72.5 93.7219 72.7219 94.117 73.117L94.25 73.25C94.7302 73.7302 95 74.3815 95 75.0607V76.382C95 77.1172 95.1712 77.8424 95.5 78.5L95.8041 79.1081C95.9329 79.3658 96 79.65 96 79.9381C96 80.3045 95.8915 80.6627 95.6883 80.9675L95.2464 81.6303C95.0826 81.8762 94.8948 82.1052 94.6858 82.3142L91.9827 85.0173C91.6736 85.3264 91.5 85.7455 91.5 86.1826C91.5 86.3923 91.46 86.6 91.3821 86.7947L91.2785 87.0536C90.8083 88.2292 89.6698 89 88.4037 89H88.371C87.8011 89 87.2418 89.1549 86.7531 89.4481L85.558 90.1652C85.1929 90.3843 84.7751 90.5 84.3493 90.5H83.919C82.8592 90.5 82 89.6408 82 88.581C82 88.2022 81.8879 87.8318 81.6777 87.5166L81.3978 87.0967C81.1352 86.7028 80.7972 86.3648 80.4033 86.1022C79.8143 85.7095 79.1223 85.5 78.4144 85.5H77.5C76.2194 85.5 74.9913 86.0087 74.0858 86.9142L73 88C71.3993 89.6007 69.2282 90.5 66.9645 90.5H64.3151C60.8886 90.5 57.5787 89.2563 55 87L52.7515 85.0325C51.6224 84.0446 50.173 83.5 48.6727 83.5H47.5899C46.8844 83.5 46.1999 83.7401 45.649 84.1808C44.6537 84.977 43.2731 85.0847 42.1665 84.4523L41.2288 83.9164C40.7512 83.6435 40.2107 83.5 39.6606 83.5H39.4199C37.8073 83.5 36.5 82.1927 36.5 80.5801C36.5 79.8831 36.2507 79.2091 35.7971 78.6799L35.3636 78.1742C34.2227 76.8431 33.9374 74.9793 34.628 73.368C34.8734 72.7953 35 72.1787 35 71.5557V69.5C35 67.2075 34.3937 64.9558 33.2425 62.9732L26.4251 51.2321C26.1429 50.7461 25.7988 50.2988 25.4014 49.9014C24.184 48.684 22.5327 48 20.811 48H18C16.7921 48 15.7058 48.7354 15.2572 49.857L15.2215 49.9464C15.0752 50.3121 15 50.7024 15 51.0963V51.882C15 52.6172 15.1712 53.3424 15.5 54L15.5686 54.1372C15.8523 54.7046 16 55.3303 16 55.9646C16 56.9544 15.6337 57.9186 14.982 58.6635C13.5786 60.2674 11.1767 60.5795 9.42724 59.3624Z" fill="#E88989" stroke="black" stroke-width="2"/>
</svg>
