<svg width="54" height="75" viewBox="0 0 54 75" fill="none" xmlns="http://www.w3.org/2000/svg">
<path d="M3.35686 72.6936L2.29828 71.4837C1.5677 70.6488 1.6096 69.3904 2.3941 68.6059C2.46461 68.5354 2.54004 68.47 2.61981 68.4101L3.11538 68.0385C3.9359 67.4231 5.0641 67.4231 5.88462 68.0385C6.28407 68.3381 6.76992 68.5 7.26923 68.5H7.5C8.14911 68.5 8.78071 68.2895 9.3 67.9L10.1485 67.2636C10.3825 67.0881 10.6038 66.8962 10.8107 66.6893L19.6161 57.8839C20.1821 57.3179 20.5 56.5504 20.5 55.75V55.2071C20.5 54.7544 20.6799 54.3201 21 54C21.3201 53.6799 21.5 53.2456 21.5 52.7929V51.4014C21.5 50.8382 21.7814 50.3124 22.25 50C22.7186 49.6876 23 49.1618 23 48.5986V48.3726C23 47.8139 23.2219 47.2781 23.617 46.883L24.6712 45.8288C24.889 45.611 25.1404 45.4298 25.4159 45.292C26.3868 44.8066 27 43.8144 27 42.729V42.3292C27 41.7839 26.873 41.2461 26.6292 40.7584L26 39.5L25.4102 38.6153C25.1427 38.2141 25 37.7427 25 37.2605C25 36.2091 25.6727 35.2758 26.6701 34.9433L27.2598 34.7467C27.7466 34.5845 28.1889 34.3111 28.5517 33.9483L28.8889 33.6111C29.2937 33.2063 29.6305 32.739 29.8865 32.2271L29.9074 32.1852C30.2971 31.4058 30.5 30.5463 30.5 29.6749V27.8028C30.5 26.6273 30.1521 25.4781 29.5 24.5C28.8424 23.1847 28.5 21.7344 28.5 20.2639V16.3081C28.5 15.7743 28.6019 15.2453 28.8001 14.7497L29.0426 14.1434C29.3335 13.4161 29.2996 12.5991 28.9493 11.8985C28.6592 11.3183 28.1729 10.8598 27.5767 10.6043L25.863 9.86984C25.2897 9.62416 24.7478 9.31088 24.2489 8.93667L23.2485 8.1864C23.0831 8.06229 22.9266 7.92659 22.7803 7.78033C21.9605 6.96055 21.5 5.84869 21.5 4.68934V4.5V3.56066C21.5 2.88153 21.7698 2.23022 22.25 1.75C22.7302 1.26978 23.3815 1 24.0607 1H24.5418C24.8461 1 25.1493 1.03732 25.4445 1.11113L25.6154 1.15385C26.5214 1.38035 27.3488 1.84883 28.0092 2.5092L33.9732 8.47316C35.2709 9.77092 37.0311 10.5 38.8664 10.5H39.8374C40.2732 10.5 40.7029 10.6014 41.0926 10.7963C41.3624 10.9312 41.6087 11.1087 41.8221 11.3221L41.9222 11.4222C42.6123 12.1123 43.5618 12.5 44.5377 12.5C44.842 12.5 45.1493 12.5373 45.4445 12.6111L45.5345 12.6336C46.4851 12.8713 47.3315 13.4144 47.9437 14.1796L48.5222 14.9028C48.8399 15.2998 49.1146 15.7293 49.342 16.184L49.5985 16.697C49.8658 17.2317 50.0949 17.7846 50.2839 18.3517L51 20.5L51.5 22.5L51.7572 23.143C52.2479 24.3697 52.5 25.6788 52.5 27V27.4816C52.5 28.8023 52.1411 30.0982 51.4615 31.2308L51.1667 31.7222C51.056 31.9067 50.9231 32.0769 50.7709 32.2291L50.5178 32.4822C50.1862 32.8138 50 33.2634 50 33.7322V35C50 35.2761 49.7761 35.5 49.5 35.5C49.2239 35.5 49 35.7239 49 36V37.4037C49 37.733 48.733 38 48.4037 38C48.1599 38 47.9406 38.1484 47.8501 38.3748L47 40.5L46.1642 42.1717C46.0549 42.3901 45.9263 42.5983 45.7798 42.7937L45.6466 42.9713C44.9285 43.9287 44.7258 45.1775 45.1043 46.3129L45.2773 46.8319C45.4216 47.2649 45.7062 47.6375 46.086 47.8907C46.657 48.2713 47 48.9122 47 49.5985V51.7929C47 52.2456 47.1799 52.6799 47.5 53C47.8201 53.3201 48 53.7544 48 54.2071V58.0986C48 58.6864 47.826 59.261 47.5 59.75C47.174 60.239 47 60.8136 47 61.4014V61.5986C47 62.1864 46.826 62.761 46.5 63.25L46.2578 63.6133C46.0897 63.8654 46 64.1617 46 64.4648C46 65.3127 45.3127 66 44.4648 66H41.2071C40.7544 66 40.3201 66.1799 40 66.5C39.6799 66.8201 39.2456 67 38.7929 67H35.0607C34.3815 67 33.7302 67.2698 33.25 67.75C32.7698 68.2302 32.1185 68.5 31.4393 68.5H27.118C26.4328 68.5 25.8064 68.8871 25.5 69.5C25.1936 70.1129 24.5672 70.5 23.882 70.5H20.6319C19.9072 70.5 19.2121 70.7879 18.6996 71.3004C18.2476 71.7524 17.6513 72.0317 17.0147 72.0896L13.6447 72.3959C12.8963 72.464 12.1816 72.7388 11.5805 73.1897C10.8791 73.7157 10.0261 74 9.14941 74H6.23596C5.13279 74 4.08331 73.5238 3.35686 72.6936Z" fill="#D89DFC" stroke="black" stroke-width="2"/>
</svg>
