<svg width="78" height="38" viewBox="0 0 78 38" fill="none" xmlns="http://www.w3.org/2000/svg">
<path d="M72.2188 27H70.7783C70.5959 27 70.4167 26.9524 70.2584 26.8619C69.3377 26.3358 68.3075 27.3536 68.8225 28.2806L69.3313 29.1964C69.4419 29.3955 69.5 29.6195 69.5 29.8473V30.1279C69.5 30.9792 69.0534 31.768 68.3235 32.2059L67.8213 32.5072C67.2839 32.8297 66.669 33 66.0423 33H64.5H63.5563C61.8752 33 60.2172 32.6086 58.7136 31.8568C58.2385 31.6192 57.7816 31.3471 57.3464 31.0425L54.2615 28.883C53.4224 28.2957 52.5288 27.7906 51.5929 27.3746L49.5815 26.4807C48.8684 26.1637 48.0968 26 47.3165 26H46.618C46.2116 26 45.8107 26.0946 45.4472 26.2764C44.5603 26.7199 44 27.6264 44 28.618V29.6906C44 30.221 44.1384 30.7422 44.4016 31.2027L45.2999 32.7748C45.6801 33.4402 45.4233 34.2883 44.7379 34.6311L44.6381 34.681C44.247 34.8765 44 35.2762 44 35.7134C44 36.7417 42.7567 37.2567 42.0296 36.5296L39.5 34L39.2717 33.7146C38.1011 32.2514 36.6645 31.0226 35.0376 30.0929C34.347 29.6983 33.6258 29.3597 32.8811 29.0804L30.9572 28.359C30.3242 28.1216 29.6537 28 28.9777 28C27.6975 28 26.4554 27.5643 25.4557 26.7646L24.9546 26.3636C24.652 26.1216 24.331 25.9034 23.9946 25.7112L23.7057 25.5461C21.9326 24.5329 19.9258 24 17.8837 24H16.9522C14.3806 24 11.8721 23.2038 9.77121 21.7209L5.63506 18.8012C4.92329 18.2988 4.5 17.4819 4.5 16.6106C4.5 15.8995 4.2175 15.2175 3.71465 14.7147L2.95822 13.9582C2.65389 13.6539 2.38803 13.3134 2.16659 12.9443L1.89454 12.4909C1.3092 11.5153 1 10.399 1 9.26133V9.06235C1 7.42961 1.68527 5.87184 2.88884 4.76856L5.90847 2.00057C6.51883 1.44108 7.46156 1.46156 8.04704 2.04704C8.33706 2.33706 8.73043 2.5 9.14059 2.5H14.25C14.6642 2.5 15 2.83579 15 3.25C15 3.66421 15.3358 4 15.75 4H19.0986C19.6617 4 20.1876 4.28144 20.5 4.75C20.8124 5.21856 21.3383 5.5 21.9014 5.5H26C26.5523 5.5 27 5.94772 27 6.5C27 7.05228 27.4477 7.5 28 7.5H30.0363C30.6634 7.5 31.275 7.69414 31.7873 8.05574L37.1342 11.83C38.6096 12.8715 40.5119 13.0952 42.1887 12.4245L47.3984 10.3406C48.405 9.93799 49.5 10.6793 49.5 11.7635C49.5 12.229 49.7116 12.6693 50.0751 12.9601L50.5908 13.3726C51.4538 14.0631 52.6338 14.2042 53.6354 13.7368L57.4653 11.9495C58.7758 11.338 60.2655 11.2296 61.6507 11.6452L62.4353 11.8806C63.7337 12.2701 65.14 12.02 66.2245 11.2066C67.6026 10.173 69.4669 10.0687 70.9517 10.9422L74.1001 12.7942C75.8968 13.8511 77 15.7799 77 17.8644V20.382C77 21.0672 76.6129 21.6936 76 22C75.3871 22.3064 75 22.9328 75 23.618V24.2188C75 25.7548 73.7548 27 72.2188 27Z" fill="#D04D4D" stroke="black" stroke-width="2"/>
</svg>
